<?xml version="1.0" encoding="UTF-8" standalone="no"?>
<svg
   version="1.2"
   viewBox="0 0 700 400"
   width="700"
   height="400"
   id="svg4"
   sodipodi:docname="taptapir_logo.svg"
   inkscape:version="1.4.2 (ebf0e940d0, 2025-05-08)"
   xmlns:inkscape="http://www.inkscape.org/namespaces/inkscape"
   xmlns:sodipodi="http://sodipodi.sourceforge.net/DTD/sodipodi-0.dtd"
   xmlns="http://www.w3.org/2000/svg"
   xmlns:svg="http://www.w3.org/2000/svg">
  <defs
     id="defs4" />
  <sodipodi:namedview
     id="namedview4"
     pagecolor="#ffffff"
     bordercolor="#000000"
     borderopacity="0.25"
     inkscape:showpageshadow="2"
     inkscape:pageopacity="0.0"
     inkscape:pagecheckerboard="0"
     inkscape:deskcolor="#d1d1d1"
     inkscape:zoom="1.445"
     inkscape:cx="208.65052"
     inkscape:cy="262.97578"
     inkscape:window-width="3440"
     inkscape:window-height="1367"
     inkscape:window-x="0"
     inkscape:window-y="0"
     inkscape:window-maximized="1"
     inkscape:current-layer="svg4" />
  <style
     id="style1">.a{fill:#111415}.b{fill:#dcdcdc;stroke:#111415;stroke-linecap:round;stroke-linejoin:round;stroke-width:16}.c{fill:#dcdcdc}.d{fill:#fef8e2;stroke:#111415;paint-order:stroke fill markers;stroke-linecap:round;stroke-linejoin:round;stroke-width:32}</style>
  <path
     class="a"
     d="m422.1 74.6l-213.2-28.6-104.6 88.7-29.3 238.3h63l-16-45 49-44 22.8 83 43.4 0.9-12.5-76.5 109.3-0.8 17.5 75.6h41l-7.2-60.3 21.7 67.1h59l-30-146 106-7 54 45 26-14-33-95-75-64-5-37-26 2-5 28-21-37h-31z"
     id="path1" />
  <path
     class="b"
     d="M 170,194 107.99654,173.30796 110.91246,137.66817 211.46021,52.612457 336.03979,71.404498 305,170 l 13.1,120.7 -93.2,1.2 z"
     id="path2"
     style="stroke-width:16;stroke-linecap:round;stroke-linejoin:round;stroke-dasharray:none;paint-order:normal"
     sodipodi:nodetypes="ccccccccc" />
  <path
     class="c"
     d="m516 141l-8 11 8 9 7-9z"
     id="path3" />
  <path
     class="d"
     d="m410.1 328.5l-72.7 6.2-78.4-51.7 10-20.8 50.9 17.4-67.4-106.7 2.6-19 18.3 4 33.7 54.9 16.8-13.5 20-3.4 10.6-9.6h21.9l12-9.2 15.9 3.5 41.5 88.4z"
     id="path4" />
</svg>
